<?xml version="1.0" encoding="UTF-8"?><svg id="Layer_1" xmlns="http://www.w3.org/2000/svg" viewBox="0 0 595.28 151.89"><defs><style>.cls-1{fill:#fff;}.cls-2{fill:#2e519f;}.cls-3{fill:#e3e024;stroke:#2e519f;stroke-miterlimit:10;stroke-width:.5px;}.cls-4{fill:#1d1d1b;}</style></defs><g><path class="cls-4" d="M143.26,105.86V43.58h46.18v10.54h-33.6v13.81h31.27v10.49h-31.27v16.95h34.79v10.49h-47.37Z"/><path class="cls-4" d="M198.1,85.59l12.23-1.19c.74,4.11,2.23,7.12,4.48,9.05,2.25,1.93,5.29,2.89,9.11,2.89,4.05,0,7.1-.86,9.15-2.57,2.05-1.71,3.08-3.72,3.08-6.01,0-1.47-.43-2.73-1.3-3.76-.86-1.03-2.37-1.93-4.52-2.7-1.47-.51-4.83-1.42-10.07-2.72-6.74-1.67-11.47-3.72-14.19-6.16-3.82-3.43-5.73-7.6-5.73-12.53,0-3.17,.9-6.14,2.7-8.9,1.8-2.76,4.39-4.86,7.77-6.31s7.47-2.17,12.26-2.17c7.82,0,13.7,1.71,17.65,5.14,3.95,3.43,6.03,8,6.22,13.72l-12.57,.55c-.54-3.2-1.69-5.5-3.46-6.9-1.77-1.4-4.43-2.1-7.97-2.1s-6.51,.75-8.58,2.25c-1.33,.96-2,2.25-2,3.87,0,1.47,.62,2.73,1.87,3.78,1.59,1.33,5.44,2.72,11.55,4.16s10.64,2.94,13.57,4.48c2.93,1.54,5.23,3.65,6.88,6.33,1.66,2.68,2.49,5.98,2.49,9.92,0,3.57-.99,6.91-2.97,10.03-1.98,3.12-4.79,5.43-8.41,6.95-3.63,1.51-8.14,2.27-13.55,2.27-7.87,0-13.92-1.82-18.14-5.46-4.22-3.64-6.74-8.94-7.56-15.91Z"/><path class="cls-4" d="M315.47,105.86h-13.68l-5.44-14.15h-24.89l-5.14,14.15h-13.34l24.26-62.28h13.3l24.94,62.28Zm-23.15-24.64l-8.58-23.11-8.41,23.11h16.99Z"/><path class="cls-4" d="M319.59,75.1c0-6.34,.95-11.67,2.85-15.97,1.42-3.17,3.35-6.02,5.8-8.54,2.45-2.52,5.13-4.39,8.05-5.61,3.88-1.64,8.35-2.46,13.42-2.46,9.18,0,16.52,2.85,22.03,8.54,5.51,5.69,8.26,13.61,8.26,23.75s-2.73,17.92-8.2,23.6-12.77,8.52-21.92,8.52-16.62-2.82-22.09-8.48c-5.47-5.65-8.2-13.43-8.2-23.34Zm12.96-.42c0,7.05,1.63,12.4,4.89,16.04,3.26,3.64,7.39,5.46,12.4,5.46s9.13-1.81,12.34-5.42c3.21-3.61,4.82-9.03,4.82-16.25s-1.57-12.46-4.69-15.97c-3.13-3.51-7.29-5.27-12.47-5.27s-9.36,1.78-12.53,5.33c-3.17,3.55-4.76,8.91-4.76,16.08Z"/></g><g><path class="cls-4" d="M116.58,118.77c0-.91,.22-1.79,.67-2.65,.45-.85,1.09-1.5,1.91-1.95s1.74-.67,2.76-.67c1.57,0,2.85,.51,3.86,1.53s1.5,2.31,1.5,3.86-.51,2.87-1.52,3.9c-1.01,1.03-2.29,1.55-3.82,1.55-.95,0-1.86-.21-2.72-.64s-1.52-1.06-1.97-1.89-.67-1.84-.67-3.03Zm2.81,.15c0,1.03,.24,1.82,.73,2.36s1.09,.82,1.81,.82,1.32-.27,1.8-.82,.73-1.34,.73-2.38-.24-1.8-.73-2.34-1.09-.82-1.8-.82-1.32,.27-1.81,.82-.73,1.33-.73,2.36Z"/><path class="cls-4" d="M136.26,124.1v-1.55c-.38,.55-.87,.99-1.49,1.31-.62,.32-1.26,.48-1.95,.48s-1.32-.15-1.88-.46c-.55-.31-.95-.74-1.2-1.29-.25-.55-.37-1.32-.37-2.29v-6.56h2.74v4.77c0,1.46,.05,2.35,.15,2.68,.1,.33,.28,.59,.55,.78,.27,.19,.61,.29,1.02,.29,.47,0,.89-.13,1.26-.39,.37-.26,.62-.58,.76-.96s.21-1.31,.21-2.8v-4.37h2.74v10.37h-2.55Z"/><path class="cls-4" d="M151.08,124.1h-2.74v-5.29c0-1.12-.06-1.84-.18-2.17-.12-.33-.31-.58-.57-.77s-.58-.27-.95-.27c-.48,0-.9,.13-1.28,.39s-.64,.6-.78,1.03-.21,1.22-.21,2.38v4.7h-2.74v-10.37h2.55v1.52c.9-1.17,2.04-1.76,3.42-1.76,.61,0,1.16,.11,1.66,.33s.88,.5,1.14,.83,.44,.72,.54,1.15c.1,.43,.15,1.04,.15,1.85v6.45Z"/><path class="cls-4" d="M153.61,124.79l3.13,.38c.05,.37,.17,.62,.36,.75,.26,.2,.67,.29,1.23,.29,.72,0,1.25-.11,1.61-.32,.24-.14,.42-.37,.55-.69,.08-.23,.13-.65,.13-1.26v-1.51c-.82,1.12-1.86,1.68-3.11,1.68-1.39,0-2.5-.59-3.31-1.77-.64-.93-.96-2.09-.96-3.48,0-1.74,.42-3.07,1.25-3.98s1.88-1.38,3.12-1.38,2.34,.56,3.17,1.69v-1.46h2.57v9.31c0,1.22-.1,2.14-.3,2.74s-.48,1.08-.85,1.43c-.36,.35-.85,.62-1.46,.81s-1.38,.29-2.31,.29c-1.76,0-3-.3-3.74-.9-.74-.6-1.1-1.37-1.1-2.29,0-.09,0-.2,0-.33Zm2.45-6.08c0,1.1,.21,1.91,.64,2.42,.43,.51,.95,.77,1.58,.77,.67,0,1.24-.26,1.7-.79,.46-.52,.69-1.3,.69-2.33s-.22-1.87-.66-2.39c-.44-.52-1-.78-1.68-.78s-1.2,.26-1.63,.77c-.43,.51-.64,1.29-.64,2.34Z"/><path class="cls-4" d="M174.27,124.1h-2.74v-10.37h2.55v1.47c.44-.7,.83-1.16,1.18-1.38s.74-.33,1.19-.33c.62,0,1.23,.17,1.81,.52l-.85,2.39c-.46-.3-.89-.45-1.29-.45s-.71,.11-.98,.32c-.27,.21-.48,.59-.63,1.15-.15,.55-.23,1.71-.23,3.48v3.2Z"/><path class="cls-4" d="M185.43,120.8l2.73,.46c-.35,1-.91,1.77-1.67,2.29-.76,.52-1.71,.79-2.85,.79-1.8,0-3.14-.59-4-1.77-.68-.94-1.03-2.13-1.03-3.57,0-1.72,.45-3.06,1.35-4.04s2.03-1.46,3.41-1.46c1.54,0,2.76,.51,3.65,1.53s1.32,2.58,1.28,4.68h-6.88c.02,.81,.24,1.45,.66,1.9,.42,.45,.95,.68,1.58,.68,.43,0,.79-.12,1.08-.35s.51-.61,.66-1.13Zm.16-2.77c-.02-.79-.22-1.4-.62-1.81-.39-.41-.87-.62-1.43-.62-.6,0-1.09,.22-1.48,.65-.39,.44-.58,1.03-.58,1.78h4.1Z"/><path class="cls-4" d="M189.58,121.14l2.75-.42c.12,.53,.35,.94,.71,1.22,.36,.28,.86,.42,1.5,.42,.71,0,1.24-.13,1.6-.39,.24-.18,.36-.43,.36-.73,0-.21-.06-.38-.2-.52-.14-.13-.44-.25-.92-.36-2.21-.49-3.62-.93-4.21-1.34-.82-.56-1.23-1.34-1.23-2.33,0-.9,.35-1.65,1.06-2.27s1.81-.92,3.3-.92,2.47,.23,3.16,.69,1.17,1.15,1.43,2.05l-2.59,.48c-.11-.4-.32-.71-.63-.93-.31-.21-.75-.32-1.32-.32-.72,0-1.24,.1-1.55,.3-.21,.14-.31,.33-.31,.56,0,.2,.09,.36,.27,.5,.25,.18,1.1,.44,2.56,.77s2.48,.74,3.06,1.22c.57,.49,.86,1.17,.86,2.04,0,.95-.4,1.77-1.19,2.45s-1.97,1.03-3.53,1.03c-1.41,0-2.53-.29-3.35-.86-.82-.57-1.36-1.35-1.62-2.33Z"/><path class="cls-4" d="M207.67,120.8l2.73,.46c-.35,1-.91,1.77-1.67,2.29-.76,.52-1.71,.79-2.85,.79-1.8,0-3.14-.59-4-1.77-.68-.94-1.03-2.13-1.03-3.57,0-1.72,.45-3.06,1.35-4.04s2.03-1.46,3.41-1.46c1.54,0,2.76,.51,3.65,1.53s1.32,2.58,1.28,4.68h-6.88c.02,.81,.24,1.45,.66,1.9,.42,.45,.95,.68,1.58,.68,.43,0,.79-.12,1.08-.35s.51-.61,.66-1.13Zm.16-2.77c-.02-.79-.22-1.4-.62-1.81-.39-.41-.87-.62-1.43-.62-.6,0-1.09,.22-1.48,.65-.39,.44-.58,1.03-.58,1.78h4.1Z"/><path class="cls-4" d="M214.84,116.9l-2.49-.45c.28-1,.76-1.74,1.45-2.23s1.7-.72,3.05-.72c1.22,0,2.14,.15,2.73,.43s1.02,.66,1.26,1.1,.37,1.26,.37,2.46l-.03,3.2c0,.91,.04,1.58,.13,2.02,.09,.43,.25,.9,.49,1.39h-2.71c-.07-.18-.16-.45-.26-.81-.05-.16-.08-.27-.1-.32-.47,.46-.97,.8-1.5,1.03-.53,.23-1.1,.34-1.71,.34-1.07,0-1.91-.29-2.52-.87-.62-.58-.92-1.31-.92-2.2,0-.59,.14-1.11,.42-1.57s.67-.81,1.18-1.05,1.23-.46,2.18-.64c1.28-.24,2.17-.46,2.67-.67v-.27c0-.53-.13-.9-.39-1.13-.26-.22-.75-.34-1.47-.34-.49,0-.87,.1-1.14,.29s-.49,.53-.66,1.01Zm3.67,2.23c-.35,.12-.91,.26-1.67,.42-.76,.16-1.26,.32-1.49,.48-.36,.25-.54,.58-.54,.97s.14,.72,.43,1c.29,.28,.65,.42,1.09,.42,.49,0,.97-.16,1.42-.49,.33-.25,.55-.55,.65-.91,.07-.23,.11-.68,.11-1.34v-.55Z"/><path class="cls-4" d="M226.54,124.1h-2.74v-10.37h2.55v1.47c.44-.7,.83-1.16,1.18-1.38s.74-.33,1.19-.33c.62,0,1.23,.17,1.81,.52l-.85,2.39c-.46-.3-.89-.45-1.29-.45s-.71,.11-.98,.32c-.27,.21-.48,.59-.63,1.15-.15,.55-.23,1.71-.23,3.48v3.2Z"/><path class="cls-4" d="M240.74,116.8l-2.71,.49c-.09-.54-.3-.95-.62-1.22-.32-.27-.74-.41-1.25-.41-.68,0-1.23,.24-1.64,.71-.41,.47-.61,1.26-.61,2.37,0,1.23,.21,2.1,.62,2.61s.97,.76,1.67,.76c.52,0,.95-.15,1.28-.44,.33-.3,.57-.81,.7-1.53l2.7,.46c-.28,1.24-.82,2.17-1.61,2.8-.79,.63-1.86,.95-3.19,.95-1.52,0-2.73-.48-3.63-1.44s-1.35-2.28-1.35-3.97,.45-3.04,1.36-4,2.13-1.43,3.67-1.43c1.26,0,2.27,.27,3.01,.82s1.28,1.37,1.61,2.48Z"/><path class="cls-4" d="M245.55,109.79v5.26c.89-1.04,1.94-1.55,3.17-1.55,.63,0,1.2,.12,1.71,.35s.89,.53,1.15,.9,.43,.77,.53,1.21,.14,1.13,.14,2.06v6.08h-2.74v-5.48c0-1.09-.05-1.78-.16-2.07s-.29-.53-.55-.7-.59-.26-.99-.26c-.46,0-.86,.11-1.22,.33s-.62,.56-.79,1c-.17,.45-.25,1.11-.25,1.98v5.2h-2.74v-14.32h2.74Z"/><path class="cls-4" d="M261.04,120.8l2.73,.46c-.35,1-.91,1.77-1.67,2.29-.76,.52-1.71,.79-2.85,.79-1.8,0-3.14-.59-4-1.77-.68-.94-1.03-2.13-1.03-3.57,0-1.72,.45-3.06,1.35-4.04s2.03-1.46,3.41-1.46c1.54,0,2.76,.51,3.65,1.53s1.32,2.58,1.28,4.68h-6.88c.02,.81,.24,1.45,.66,1.9,.42,.45,.95,.68,1.58,.68,.43,0,.79-.12,1.08-.35s.51-.61,.66-1.13Zm.16-2.77c-.02-.79-.22-1.4-.62-1.81-.39-.41-.87-.62-1.43-.62-.6,0-1.09,.22-1.48,.65-.39,.44-.58,1.03-.58,1.78h4.1Z"/><path class="cls-4" d="M268.79,124.1h-2.74v-10.37h2.55v1.47c.44-.7,.83-1.16,1.18-1.38s.74-.33,1.19-.33c.62,0,1.23,.17,1.81,.52l-.85,2.39c-.46-.3-.89-.45-1.29-.45s-.71,.11-.98,.32c-.27,.21-.48,.59-.63,1.15-.15,.55-.23,1.71-.23,3.48v3.2Z"/><path class="cls-4" d="M272.98,121.14l2.75-.42c.12,.53,.35,.94,.71,1.22,.36,.28,.86,.42,1.5,.42,.71,0,1.24-.13,1.6-.39,.24-.18,.36-.43,.36-.73,0-.21-.07-.38-.2-.52-.14-.13-.44-.25-.92-.36-2.21-.49-3.62-.93-4.21-1.34-.82-.56-1.23-1.34-1.23-2.33,0-.9,.35-1.65,1.06-2.27s1.81-.92,3.3-.92,2.47,.23,3.16,.69,1.17,1.15,1.43,2.05l-2.59,.48c-.11-.4-.32-.71-.63-.93-.31-.21-.75-.32-1.32-.32-.72,0-1.24,.1-1.55,.3-.21,.14-.31,.33-.31,.56,0,.2,.09,.36,.27,.5,.25,.18,1.1,.44,2.56,.77s2.48,.74,3.06,1.22c.57,.49,.86,1.17,.86,2.04,0,.95-.4,1.77-1.19,2.45s-1.97,1.03-3.53,1.03c-1.41,0-2.53-.29-3.35-.86-.82-.57-1.36-1.35-1.62-2.33Z"/><path class="cls-4" d="M290.62,112.33v-2.54h2.74v2.54h-2.74Zm0,11.78v-10.37h2.74v10.37h-2.74Z"/><path class="cls-4" d="M305.61,124.1h-2.74v-5.29c0-1.12-.06-1.84-.18-2.17-.12-.33-.31-.58-.57-.77s-.58-.27-.95-.27c-.48,0-.9,.13-1.28,.39s-.64,.6-.78,1.03c-.14,.43-.21,1.22-.21,2.38v4.7h-2.74v-10.37h2.55v1.52c.91-1.17,2.04-1.76,3.42-1.76,.61,0,1.16,.11,1.66,.33s.88,.5,1.14,.83,.44,.72,.54,1.15c.1,.43,.15,1.04,.15,1.85v6.45Z"/><path class="cls-4" d="M308.4,112.33v-2.54h2.74v2.54h-2.74Zm0,11.78v-10.37h2.74v10.37h-2.74Z"/><path class="cls-4" d="M318.71,113.73v2.19h-1.88v4.18c0,.85,.02,1.34,.05,1.48,.04,.14,.12,.26,.24,.35,.13,.09,.28,.14,.46,.14,.25,0,.62-.09,1.1-.26l.23,2.13c-.64,.27-1.36,.41-2.17,.41-.5,0-.94-.08-1.34-.25s-.69-.38-.87-.64-.31-.62-.39-1.07c-.06-.32-.09-.96-.09-1.93v-4.52h-1.26v-2.19h1.26v-2.06l2.75-1.6v3.66h1.88Z"/><path class="cls-4" d="M320.61,112.33v-2.54h2.74v2.54h-2.74Zm0,11.78v-10.37h2.74v10.37h-2.74Z"/><path class="cls-4" d="M328.22,116.9l-2.49-.45c.28-1,.76-1.74,1.45-2.23s1.7-.72,3.05-.72c1.22,0,2.14,.15,2.73,.43s1.02,.66,1.26,1.1,.37,1.26,.37,2.46l-.03,3.2c0,.91,.04,1.58,.13,2.02,.09,.43,.25,.9,.49,1.39h-2.71c-.07-.18-.16-.45-.26-.81-.05-.16-.08-.27-.1-.32-.47,.46-.97,.8-1.5,1.03-.53,.23-1.1,.34-1.71,.34-1.07,0-1.91-.29-2.52-.87-.62-.58-.92-1.31-.92-2.2,0-.59,.14-1.11,.42-1.57s.67-.81,1.18-1.05,1.23-.46,2.18-.64c1.28-.24,2.17-.46,2.67-.67v-.27c0-.53-.13-.9-.39-1.13-.26-.22-.75-.34-1.47-.34-.49,0-.87,.1-1.14,.29s-.5,.53-.66,1.01Zm3.67,2.23c-.35,.12-.91,.26-1.67,.42-.76,.16-1.26,.32-1.49,.48-.36,.25-.54,.58-.54,.97s.14,.72,.43,1c.29,.28,.65,.42,1.09,.42,.5,0,.97-.16,1.42-.49,.33-.25,.55-.55,.65-.91,.07-.23,.11-.68,.11-1.34v-.55Z"/><path class="cls-4" d="M342.05,113.73v2.19h-1.88v4.18c0,.85,.02,1.34,.05,1.48,.04,.14,.12,.26,.24,.35,.13,.09,.28,.14,.46,.14,.25,0,.62-.09,1.1-.26l.23,2.13c-.64,.27-1.36,.41-2.17,.41-.5,0-.94-.08-1.34-.25s-.69-.38-.87-.64-.31-.62-.39-1.07c-.06-.32-.09-.96-.09-1.93v-4.52h-1.26v-2.19h1.26v-2.06l2.75-1.6v3.66h1.88Z"/><path class="cls-4" d="M343.95,112.33v-2.54h2.74v2.54h-2.74Zm0,11.78v-10.37h2.74v10.37h-2.74Z"/><path class="cls-4" d="M352.36,124.1l-4.18-10.37h2.88l1.95,5.29,.57,1.77c.15-.45,.24-.75,.28-.89,.09-.29,.19-.59,.29-.88l1.97-5.29h2.82l-4.12,10.37h-2.47Z"/><path class="cls-4" d="M366.64,120.8l2.73,.46c-.35,1-.91,1.77-1.67,2.29-.76,.52-1.71,.79-2.85,.79-1.8,0-3.14-.59-4-1.77-.68-.94-1.03-2.13-1.03-3.57,0-1.72,.45-3.06,1.35-4.04s2.03-1.46,3.41-1.46c1.54,0,2.76,.51,3.65,1.53s1.32,2.58,1.28,4.68h-6.88c.02,.81,.24,1.45,.66,1.9,.42,.45,.95,.68,1.58,.68,.43,0,.79-.12,1.08-.35s.51-.61,.66-1.13Zm.16-2.77c-.02-.79-.22-1.4-.62-1.81-.39-.41-.87-.62-1.43-.62-.6,0-1.09,.22-1.48,.65-.39,.44-.58,1.03-.58,1.78h4.1Z"/></g><path class="cls-4" d="M69,113.68s-1,2.06-1,4.13c0,0-1,6.19,4,6.19s12-1.03,21-9.28,9-9.28,14-15.47,4-5.16,7-9.28c0,0,18-28.89,20-37.14s-4-9.28-4-9.28l-4-1.03v4.13c0,3.09-11,34.04-17,41.27,0,0-10-36.11-13-38.17s-9-3.09-13,1.03c0,0,16,19.6,19,45.39,0,0-8,11.35-13,14.44s-9,6.19-15,5.16c0,0-3,0-5-2.06Z"/><g><polygon class="cls-3" points="449.82 105.05 448.44 109.18 444.77 109.18 447.52 111.47 446.61 115.6 449.82 113.31 453.03 115.6 451.65 111.47 454.87 109.18 451.2 109.18 449.82 105.05"/><polygon class="cls-3" points="432.01 108.95 430.63 113.08 426.96 113.08 429.71 115.37 428.79 119.5 432.01 117.21 435.22 119.5 433.84 115.37 437.05 113.08 433.38 113.08 432.01 108.95"/><polygon class="cls-3" points="414.57 104.82 413.19 108.95 409.52 108.95 412.28 111.24 411.36 115.37 414.57 113.08 417.78 115.37 416.41 111.24 419.62 108.95 415.95 108.95 414.57 104.82"/><polygon class="cls-3" points="402.64 92.43 401.27 96.56 397.6 96.56 400.35 98.85 399.43 102.98 402.64 100.69 405.85 102.98 404.48 98.85 407.69 96.56 404.02 96.56 402.64 92.43"/><polygon class="cls-3" points="396.22 74.54 394.84 78.67 391.17 78.67 393.93 80.96 393.01 85.09 396.22 82.8 399.43 85.09 398.05 80.96 401.27 78.67 397.6 78.67 396.22 74.54"/><polygon class="cls-3" points="401.17 56.65 399.79 60.77 396.12 60.77 398.87 63.07 397.95 67.2 401.17 64.9 404.38 67.2 403 63.07 406.21 60.77 402.54 60.77 401.17 56.65"/><polygon class="cls-3" points="414.47 41.96 413.09 46.09 409.42 46.09 412.18 48.39 411.26 52.52 414.47 50.22 417.68 52.52 416.31 48.39 419.52 46.09 415.85 46.09 414.47 41.96"/><polygon class="cls-3" points="431.91 36 430.53 40.13 426.86 40.13 429.61 42.42 428.69 46.55 431.91 44.26 435.12 46.55 433.74 42.42 436.95 40.13 433.28 40.13 431.91 36"/><polygon class="cls-3" points="448.88 41.05 447.5 45.18 443.83 45.18 446.59 47.47 445.67 51.6 448.88 49.3 452.09 51.6 450.72 47.47 453.93 45.18 450.26 45.18 448.88 41.05"/></g><path class="cls-2" d="M489.27,76.14V37.29s-43.65-1.52-42.93,38.86h42.93Z"/><path class="cls-2" d="M491.35,37.28v38.87h35.07s1.42-33.69-35.07-38.87Z"/><path class="cls-2" d="M481.09,118.61v-38.87h-35.07s-1.42,33.69,35.07,38.87Z"/><g><path class="cls-2" d="M482.91,118.81l43.54-.07s1.64-39.42-43.61-38.7l.06,38.77Z"/><g><path class="cls-1" d="M484.57,116.05v-12.15h7.2v1.43h-5.89v3.71h5.51v1.43h-5.51v4.14h6.12v1.43h-7.43Z"/><path class="cls-1" d="M493.38,112.13l1.24-.13c.07,.67,.22,1.19,.45,1.56,.23,.37,.57,.67,1.01,.9s.93,.34,1.48,.34c.78,0,1.39-.19,1.83-.58,.43-.38,.65-.88,.65-1.49,0-.36-.08-.67-.24-.94-.16-.27-.4-.49-.71-.66-.32-.17-1-.41-2.06-.73-.94-.28-1.61-.56-2.01-.84-.4-.28-.71-.64-.93-1.07s-.33-.92-.33-1.47c0-.98,.32-1.79,.95-2.41,.63-.62,1.49-.94,2.57-.94,.74,0,1.39,.15,1.94,.44s.99,.71,1.29,1.26c.31,.55,.47,1.19,.49,1.93l-1.27,.12c-.07-.79-.3-1.38-.71-1.76s-.98-.57-1.71-.57-1.32,.17-1.71,.5c-.39,.33-.59,.77-.59,1.3,0,.49,.14,.87,.43,1.14,.29,.27,.93,.54,1.94,.82,.98,.27,1.67,.51,2.07,.71,.61,.31,1.07,.72,1.38,1.22,.31,.5,.47,1.11,.47,1.81s-.16,1.33-.49,1.9-.77,1.01-1.33,1.3c-.56,.3-1.24,.45-2.03,.45-1.23,0-2.21-.37-2.95-1.11s-1.11-1.74-1.14-3.01Z"/><path class="cls-1" d="M502.02,116.05l3.84-12.15h1.41l4.08,12.15h-1.51l-1.16-3.68h-4.19l-1.08,3.68h-1.39Zm2.86-4.99h3.39l-1.04-3.36c-.32-1.03-.56-1.87-.7-2.52-.13,.78-.31,1.55-.55,2.32l-1.11,3.56Z"/><path class="cls-1" d="M512.02,110.13c0-2.07,.46-3.67,1.37-4.78,.91-1.11,2.05-1.67,3.41-1.67,.88,0,1.68,.25,2.4,.75,.72,.5,1.3,1.22,1.72,2.17s.63,2.08,.63,3.39c0,1.8-.41,3.27-1.23,4.4-.9,1.25-2.08,1.87-3.54,1.87s-2.65-.64-3.55-1.92c-.81-1.16-1.22-2.56-1.22-4.2Zm1.36,.02c0,1.5,.33,2.66,.99,3.49,.66,.83,1.46,1.24,2.41,1.24s1.78-.42,2.43-1.25c.66-.84,.98-2.06,.98-3.68,0-1.04-.17-1.98-.5-2.8-.26-.63-.65-1.14-1.17-1.51-.52-.38-1.09-.57-1.71-.57-1,0-1.81,.41-2.46,1.24s-.97,2.11-.97,3.85Z"/></g></g></svg>